<svg xmlns="http://www.w3.org/2000/svg" viewBox="0 0 24 24" fill="none" stroke="#f75353" stroke-width="2" stroke-linecap="round" stroke-linejoin="round">
  <path d="M12 2v6m0 0L9 5m3 3 3-3" />
  <path d="M12 8v8m3.536-3.536 1.414 1.414a4 4 0 0 1 0 5.657l-.943.943a2 2 0 0 1-2.828 0L8.464 15.95a4 4 0 0 1 0-5.657l1.414-1.414a2 2 0 0 1 2.828 0L14.120 10.88" />
  <path d="M9.172 21.243A4 4 0 0 1 6.343 20H4a2 2 0 0 1-2-2v-2a4 4 0 0 1 1.172-2.829L6 10.343" />
  <path d="M14.83 21.242A4 4 0 0 0 17.657 20H20a2 2 0 0 0 2-2v-2a4 4 0 0 0-1.172-2.829L18 10.343" />
</svg>