<svg version="1.1" id="Layer_1" xmlns="http://www.w3.org/2000/svg" xmlns:xlink="http://www.w3.org/1999/xlink" x="0px" y="0px"
	 width="100%" viewBox="0 0 389 230" enable-background="new 0 0 389 230" xml:space="preserve">
<path fill="#000000" opacity="1.000000" stroke="none" 
	d="
M347.000000,231.000000 
	C296.645782,231.000000 246.291550,231.000000 195.220581,230.644318 
	C196.337677,224.598587 198.396591,218.969788 199.964218,213.207306 
	C205.180420,194.032867 210.190765,174.802551 215.335388,155.608490 
	C221.151596,133.908859 227.117203,112.248802 232.825745,90.521057 
	C234.656845,83.551613 229.867126,76.574562 222.345856,74.414757 
	C216.539932,72.747536 211.098480,76.203468 208.945633,83.628967 
	C202.504929,105.843941 196.183121,128.095032 190.034851,150.392654 
	C184.971481,168.755783 180.089249,187.171661 175.392868,205.631866 
	C173.263107,214.003403 171.777710,222.538895 170.000000,231.000000 
	C130.312439,231.000000 90.624878,231.000000 50.218506,230.649948 
	C49.251270,228.825241 49.315628,227.204468 48.705597,225.898758 
	C43.144413,213.995880 40.009617,201.553131 40.003479,188.374557 
	C39.997585,175.716690 39.872860,163.057129 40.039173,150.401443 
	C40.200260,138.143585 39.573696,125.740196 41.227627,113.665718 
	C44.520725,89.624596 56.261829,69.899132 74.815964,54.103260 
	C94.526810,37.322639 117.411949,29.990234 142.983566,29.998882 
	C180.957169,30.011723 218.930862,29.966131 256.904297,30.047733 
	C261.666565,30.057964 266.508911,30.248837 271.174377,31.111761 
	C287.782623,34.183617 303.441620,39.702141 316.989960,50.201958 
	C330.391846,60.588261 341.264526,73.128166 348.427277,88.542900 
	C355.373779,103.492302 358.179474,119.384384 358.029938,135.863907 
	C357.884857,151.851471 358.391571,167.854950 357.840576,183.824829 
	C357.543579,192.432724 356.191040,201.112579 354.276367,209.523590 
	C352.607513,216.854630 349.481934,223.854050 347.000000,231.000000 
M138.181335,131.684875 
	C142.539246,127.325874 146.806870,122.871437 151.282730,118.637100 
	C155.080353,115.044426 156.683563,110.734917 155.962891,105.674721 
	C155.275589,100.848679 152.069611,97.778648 147.772781,96.024979 
	C144.396759,94.647102 140.965469,93.796616 137.751633,97.031174 
	C119.200729,115.701744 100.535057,134.258224 81.959961,152.904861 
	C77.595207,157.286453 77.562927,162.592743 81.973801,166.949615 
	C100.672340,185.419357 119.399101,203.861694 138.295044,222.128326 
	C139.984177,223.761200 143.107986,225.083755 145.316986,224.774628 
	C150.898056,223.993561 155.029022,220.461258 156.635345,214.963394 
	C158.082031,210.011917 156.569427,205.531036 152.855957,201.819885 
	C138.653244,187.626129 124.481842,173.401047 109.796135,158.683960 
	C118.949448,149.985428 128.314407,141.085739 138.181335,131.684875 
M255.906509,221.007935 
	C260.793121,221.764435 264.314362,219.733414 267.731415,216.257339 
	C283.966156,199.742035 300.425964,183.447968 316.799316,167.068787 
	C323.538788,160.326904 323.582733,156.567001 316.980499,149.960114 
	C300.374512,133.342316 283.539551,116.944893 267.268463,100.005653 
	C261.941315,94.459740 253.545471,94.858574 249.653564,99.418343 
	C244.569183,105.375191 242.911514,110.636612 249.253036,117.225578 
	C261.870117,130.334930 274.627502,143.309265 287.319214,156.346893 
	C288.435272,157.493393 289.494629,158.695099 290.987091,160.311783 
	C289.017914,162.111252 287.267395,163.631134 285.605438,165.242355 
	C273.845215,176.643600 262.225861,188.193634 250.311966,199.431625 
	C242.469589,206.829071 245.479111,218.089859 255.906509,221.007935 
z"/>
<path fill="#FDFDFD" opacity="1.000000" stroke="none" 
	d="
M347.468658,231.000000 
	C349.481934,223.854050 352.607513,216.854630 354.276367,209.523590 
	C356.191040,201.112579 357.543579,192.432724 357.840576,183.824829 
	C358.391571,167.854950 357.884857,151.851471 358.029938,135.863907 
	C358.179474,119.384384 355.373779,103.492302 348.427277,88.542900 
	C341.264526,73.128166 330.391846,60.588261 316.989960,50.201958 
	C303.441620,39.702141 287.782623,34.183617 271.174377,31.111761 
	C266.508911,30.248837 261.666565,30.057964 256.904297,30.047733 
	C218.930862,29.966131 180.957169,30.011723 142.983566,29.998882 
	C117.411949,29.990234 94.526810,37.322639 74.815964,54.103260 
	C56.261829,69.899132 44.520725,89.624596 41.227627,113.665718 
	C39.573696,125.740196 40.200260,138.143585 40.039173,150.401443 
	C39.872860,163.057129 39.997585,175.716690 40.003479,188.374557 
	C40.009617,201.553131 43.144413,213.995880 48.705597,225.898758 
	C49.315628,227.204468 49.251270,228.825241 49.749847,230.649948 
	C40.312439,231.000000 30.624876,231.000000 20.847116,230.736801 
	C19.837635,227.839279 18.855379,225.225006 18.009336,222.567368 
	C12.698377,205.884384 11.407616,188.721481 12.002509,171.346085 
	C12.766000,149.046387 10.204705,126.661537 14.890296,104.455765 
	C19.919231,80.622841 30.393051,59.689457 47.065811,42.140091 
	C69.114227,18.932432 96.427528,6.055929 128.323822,2.919428 
	C128.939499,2.858884 129.443756,1.665071 130.000000,0.999999 
	C175.020889,1.000000 220.041794,1.000000 265.173340,1.353602 
	C266.080902,2.136547 266.858612,2.898849 267.677612,2.946156 
	C284.665222,3.927371 300.591003,9.029714 315.522430,16.685123 
	C336.273987,27.324518 353.288513,42.245369 365.675751,62.441479 
	C378.115753,82.723541 384.725647,104.499687 384.958282,128.182892 
	C385.171051,149.839340 385.091858,171.500198 384.927124,193.157486 
	C384.895050,197.371857 384.178528,201.646133 383.252472,205.774979 
	C381.357056,214.225647 379.105133,222.596359 377.000000,231.000000 
	C367.312439,231.000000 357.624878,231.000000 347.468658,231.000000 
z"/>
<path fill="#000000" opacity="1.000000" stroke="none" 
	d="
M129.531342,0.999999 
	C129.443756,1.665071 128.939499,2.858884 128.323822,2.919428 
	C96.427528,6.055929 69.114227,18.932432 47.065811,42.140091 
	C30.393051,59.689457 19.919231,80.622841 14.890296,104.455765 
	C10.204705,126.661537 12.766000,149.046387 12.002509,171.346085 
	C11.407616,188.721481 12.698377,205.884384 18.009336,222.567368 
	C18.855379,225.225006 19.837635,227.839279 20.378460,230.736801 
	C13.674003,231.000000 7.348005,231.000000 1.016506,231.000000 
	C1.011004,154.429474 1.011004,77.858948 1.011004,1.000000 
	C43.687126,1.000000 86.374908,1.000000 129.531342,0.999999 
z"/>
<path fill="#000000" opacity="1.000000" stroke="none" 
	d="
M377.458069,231.000000 
	C379.105133,222.596359 381.357056,214.225647 383.252472,205.774979 
	C384.178528,201.646133 384.895050,197.371857 384.927124,193.157486 
	C385.091858,171.500198 385.171051,149.839340 384.958282,128.182892 
	C384.725647,104.499687 378.115753,82.723541 365.675751,62.441479 
	C353.288513,42.245369 336.273987,27.324518 315.522430,16.685123 
	C300.591003,9.029714 284.665222,3.927371 267.677612,2.946156 
	C266.858612,2.898849 266.080902,2.136547 265.641968,1.353602 
	C306.354218,1.000000 346.708466,1.000000 387.531708,1.468657 
	C388.000488,78.291542 388.000244,154.645767 388.000000,231.000000 
	C384.638702,231.000000 381.277435,231.000000 377.458069,231.000000 
z"/>
<path fill="#FEFEFE" opacity="1.000000" stroke="none" 
	d="
M170.468643,231.000000 
	C171.777710,222.538895 173.263107,214.003403 175.392868,205.631866 
	C180.089249,187.171661 184.971481,168.755783 190.034851,150.392654 
	C196.183121,128.095032 202.504929,105.843941 208.945633,83.628967 
	C211.098480,76.203468 216.539932,72.747536 222.345856,74.414757 
	C229.867126,76.574562 234.656845,83.551613 232.825745,90.521057 
	C227.117203,112.248802 221.151596,133.908859 215.335388,155.608490 
	C210.190765,174.802551 205.180420,194.032867 199.964218,213.207306 
	C198.396591,218.969788 196.337677,224.598587 194.751923,230.644318 
	C186.979095,231.000000 178.958191,231.000000 170.468643,231.000000 
z"/>
<path fill="#FFFFFF" opacity="1.000000" stroke="none" 
	d="
M388.500000,231.000000 
	C388.000244,154.645767 388.000488,78.291542 388.000366,1.468658 
	C388.666656,1.166669 389.850739,1.229741 389.908508,1.518319 
	C390.133118,2.640016 390.000000,3.833333 390.000000,5.000000 
	C390.000000,79.000000 390.005219,153.000000 389.958344,226.999969 
	C389.957520,228.333527 389.333344,229.666672 388.500000,231.000000 
z"/>
<path fill="#FAFAFA" opacity="1.000000" stroke="none" 
	d="
M137.930359,131.935471 
	C128.314407,141.085739 118.949448,149.985428 109.796135,158.683960 
	C124.481842,173.401047 138.653244,187.626129 152.855957,201.819885 
	C156.569427,205.531036 158.082031,210.011917 156.635345,214.963394 
	C155.029022,220.461258 150.898056,223.993561 145.316986,224.774628 
	C143.107986,225.083755 139.984177,223.761200 138.295044,222.128326 
	C119.399101,203.861694 100.672340,185.419357 81.973801,166.949615 
	C77.562927,162.592743 77.595207,157.286453 81.959961,152.904861 
	C100.535057,134.258224 119.200729,115.701744 137.751633,97.031174 
	C140.965469,93.796616 144.396759,94.647102 147.772781,96.024979 
	C152.069611,97.778648 155.275589,100.848679 155.962891,105.674721 
	C156.683563,110.734917 155.080353,115.044426 151.282730,118.637100 
	C146.806870,122.871437 142.539246,127.325874 137.930359,131.935471 
z"/>
<path fill="#FAFAFA" opacity="1.000000" stroke="none" 
	d="
M255.488876,221.004761 
	C245.479111,218.089859 242.469589,206.829071 250.311966,199.431625 
	C262.225861,188.193634 273.845215,176.643600 285.605438,165.242355 
	C287.267395,163.631134 289.017914,162.111252 290.987091,160.311783 
	C289.494629,158.695099 288.435272,157.493393 287.319214,156.346893 
	C274.627502,143.309265 261.870117,130.334930 249.253036,117.225578 
	C242.911514,110.636612 244.569183,105.375191 249.653564,99.418343 
	C253.545471,94.858574 261.941315,94.459740 267.268463,100.005653 
	C283.539551,116.944893 300.374512,133.342316 316.980499,149.960114 
	C323.582733,156.567001 323.538788,160.326904 316.799316,167.068787 
	C300.425964,183.447968 283.966156,199.742035 267.731415,216.257339 
	C264.314362,219.733414 260.793121,221.764435 255.488876,221.004761 
z"/>
</svg>